<svg xmlns="http://www.w3.org/2000/svg" width="22" height="22" viewBox="0 0 22 22">
  <g id="Group_769" data-name="Group 769" transform="translate(-760 -378)">
    <circle id="Ellipse_35" data-name="Ellipse 35" cx="11" cy="11" r="11" transform="translate(760 378)" fill="#d93025"/>
    <g id="rubbish-bin" transform="translate(767 384)">
      <g id="Group_752" data-name="Group 752">
        <path id="Path_2268" data-name="Path 2268" d="M74.4,107.048a.539.539,0,0,0,.538.516h5.028a.539.539,0,0,0,.538-.516l.359-7.58H74.043Zm4.189-5.7a.219.219,0,0,1,.219-.219h.35a.219.219,0,0,1,.219.219v4.33a.219.219,0,0,1-.219.219h-.35a.219.219,0,0,1-.219-.219Zm-1.531,0a.219.219,0,0,1,.219-.219h.35a.219.219,0,0,1,.219.219v4.33a.219.219,0,0,1-.219.219h-.35a.219.219,0,0,1-.219-.219v-4.33Zm-1.531,0a.219.219,0,0,1,.219-.219h.35a.219.219,0,0,1,.219.219v4.33a.219.219,0,0,1-.219.219h-.35a.219.219,0,0,1-.219-.219Z" transform="translate(-73.466 -96.862)" fill="#fff"/>
        <path id="Path_2269" data-name="Path 2269" d="M59.654.551H57.335V.113A.113.113,0,0,0,57.222,0H54.786a.113.113,0,0,0-.113.113V.551H52.354a.338.338,0,0,0-.338.338V1.951h7.976V.889A.338.338,0,0,0,59.654.551Z" transform="translate(-52.016)" fill="#fff"/>
      </g>
    </g>
  </g>
</svg>
